<?xml version="1.0" standalone="no"?>
<!DOCTYPE svg PUBLIC "-//W3C//DTD SVG 20010904//EN"
 "http://www.w3.org/TR/2001/REC-SVG-20010904/DTD/svg10.dtd">
<svg version="1.0" xmlns="http://www.w3.org/2000/svg"
 width="225.000000pt" height="225.000000pt" viewBox="0 0 225.000000 225.000000"
 preserveAspectRatio="xMidYMid meet">

<g transform="translate(0.000000,225.000000) scale(0.100000,-0.100000)"
fill="#000000" stroke="none">
<path d="M1629 1664 l-337 -337 -30 21 c-105 76 -261 39 -343 -80 -32 -48 -34
-55 -34 -137 0 -72 4 -92 23 -125 l23 -40 -336 -336 c-344 -344 -365 -370
-306 -378 20 -3 80 52 355 327 l332 332 49 -23 c141 -63 319 15 361 158 20 69
14 130 -20 189 l-23 43 334 333 c279 280 333 338 331 359 -7 61 -34 39 -379
-306z m-406 -365 l28 -13 -132 -132 c-97 -97 -136 -130 -145 -123 -21 17 -36
100 -24 138 26 91 116 157 200 147 25 -2 58 -10 73 -17z m92 -99 c55 -107 -49
-266 -177 -269 -23 -1 -108 26 -108 33 0 3 264 266 267 266 1 0 9 -13 18 -30z"/>
<path d="M965 1713 c-402 -52 -719 -218 -886 -464 -67 -99 -71 -115 -43 -170
75 -149 265 -316 462 -407 48 -22 56 -23 69 -9 25 25 7 52 -55 80 -32 15 -92
49 -133 76 -137 90 -299 274 -284 322 12 37 122 173 181 225 125 108 232 168
390 219 157 52 264 68 454 68 128 0 192 -5 284 -22 66 -12 125 -20 133 -17 7
3 13 17 13 30 0 30 -25 39 -181 61 -94 13 -328 18 -404 8z"/>
<path d="M1687 1593 c-4 -3 -7 -16 -7 -28 0 -18 16 -30 86 -64 168 -80 300
-187 384 -311 l41 -61 -21 -37 c-42 -70 -125 -164 -198 -223 -171 -138 -354
-216 -612 -260 -112 -19 -374 -17 -498 5 -110 19 -132 17 -132 -12 0 -32 20
-40 138 -56 553 -77 1100 117 1338 475 59 89 59 123 3 210 -79 122 -213 233
-387 320 -94 48 -122 56 -135 42z"/>
</g>
</svg>
