<?xml version="1.0" encoding="UTF-8"?>
<!DOCTYPE svg PUBLIC "-//W3C//DTD SVG 1.1//EN" "http://www.w3.org/Graphics/SVG/1.1/DTD/svg11.dtd">
<!-- Creator: CorelDRAW -->
<svg xmlns="http://www.w3.org/2000/svg" xml:space="preserve" width="200mm" height="200mm" version="1.1" style="shape-rendering:geometricPrecision; text-rendering:geometricPrecision; image-rendering:optimizeQuality; fill-rule:evenodd; clip-rule:evenodd"
viewBox="0 0 20000 20000"
 xmlns:xlink="http://www.w3.org/1999/xlink"
 xmlns:xodm="http://www.corel.com/coreldraw/odm/2003">
 <defs>
  <style type="text/css">
   <![CDATA[
    .fil0 {fill:black}
   ]]>
  </style>
 </defs>
 <g id="Слой_x0020_1">
  <metadata id="CorelCorpID_0Corel-Layer"/>
  <g id="_2575146912400">
   <path class="fil0" d="M4254.99 9208.9c13.03,465.58 7.47,931.03 13.75,1394.18 1.28,93.93 -0.45,188.05 1.88,281.95 0.87,35.32 12.67,46.36 23.15,54.15 1.75,1.23 8.05,2.34 10.2,2.72 48.28,8.55 196.35,17.09 240.03,-8.69 8.41,-4.97 10.11,-5.65 8.6,-15.59 -3.42,-22.49 -4.21,-44.49 -5.44,-67.13 -3.19,-56.84 -5.02,-114.44 -5.79,-171.36 -2.14,-157.29 -3.45,-314.82 -3.49,-472.13 0,-31.11 284.08,-22.58 304.81,-6.95 50.14,37.86 94,125.64 152.87,221.72 105.66,172.45 225.98,398.71 359.82,532.89 12.63,3.66 306.9,37.46 249.79,-50.55 -59.53,-91.77 -115.26,-177.67 -174.78,-269.43 -51.24,-78.98 -107.72,-155.67 -158.03,-235.75 -29.96,-47.69 -141.22,-204.99 -154.45,-245.7 -2.29,-7.06 -4.86,-7.3 2.23,-9.91 21.63,-7.94 41.52,-16.76 62.16,-26.98 81.18,-40.27 139.65,-89.32 197.23,-158.52 78.21,-94.05 113.43,-192.8 117.67,-288.46 8.08,-181.91 -52.47,-338.77 -181.24,-454.87 -87.82,-79.17 -220.68,-126.48 -254.77,-127.36l-0.36 -0.01c-5.42,-0.14 -10.85,-0.25 -16.29,-0.36 -69.23,-1.32 -138.74,-1.49 -207.99,-1.63 -50.38,-0.1 -578.52,-0.56 -589.91,12.04 -0.35,0.4 -0.07,5.19 0.02,5.81 5.13,35.04 7.35,70.89 8.33,105.92zm284.34 143.14c0.3,-20.67 -0.44,-45.23 3.52,-67.86 3.19,-18.22 14.76,-20.19 42.69,-20.93 7.9,-0.21 260.1,-8.42 399.16,8.77 60.57,7.48 243.89,126.38 241.25,348.73 -3.03,255.09 -208.09,398.66 -278.83,398.62 -55.86,-0.02 -394.84,3.75 -398.6,0.32 -3.76,-3.43 -9.35,-649.84 -9.19,-667.65z"/>
   <path class="fil0" d="M6459.15 9217.18c13.96,553.31 8.05,1107.97 16.29,1663.02 0.35,24.56 -6.17,43.63 3.89,55.74 3.02,3.62 11.42,6.29 16.86,6.58 16.12,0.84 27.49,-0.02 44.57,0.26 0,0 1163.17,-8.5 1170.76,-9.83 13.82,-2.87 16.89,-67.88 17.26,-79.05 0.59,-17.57 0.76,-90.53 -15.48,-97.14 -17.21,-6.99 -49.85,6.1 -53.48,6.13 -50.6,0.44 -33.95,0.4 -75.83,0.69 -237.43,1.64 -474.94,3.75 -712.39,4.49 -41.48,0.13 -83.23,0.43 -124.71,-0.1 -1.32,-0.02 -15.26,-0.16 -15.96,-0.56 -5.23,-3.38 -7.28,-693.92 -3.29,-695.16 3.99,-1.23 890.05,5.18 894.33,1.52 1.09,-0.93 15.16,-15.8 17.47,-34.41 3.48,-27.93 6.78,-72.02 -0.35,-109.24 -5.27,-27.51 -26.44,-42.16 -29.42,-42.4 -15.78,-1.31 -20.84,4.26 -53.91,4.18 -193.36,-0.47 -831.13,3.59 -830.05,0.23 1.28,-3.93 -3.83,-643.5 -5.02,-645.17 -2.37,-3.33 966.45,-2.53 970.6,-3.73 11.35,-3.82 12.13,-78.35 12.13,-89.23 0.01,-20.96 -0.9,-45.13 -3.82,-65.83 -1.16,-8.18 -3.51,-11.2 -5.49,-14.41 -2.96,-4.81 -9.18,-11.41 -11.86,-11.61 -10.98,-0.82 -15.22,1.6 -26.6,4.09 -5.75,1.26 -8.43,0.93 -11.71,1.39 -12.63,1.77 -285.4,-0.65 -442.61,-0.79 -225.71,-0.21 -451.47,0.1 -677.18,0.1 -31.34,0 -73.1,12.71 -71.54,66.39 0.84,28.88 5.82,54.97 6.54,83.85z"/>
   <path class="fil0" d="M8669.76 9181.41c6.12,314.39 10.46,1747.36 8.3,1746.5 -7.42,41.24 254.46,50.28 263.88,-2.67 3.29,-18.54 -1.71,-712.37 -1.71,-712.37l417.13 1.32c231.72,4.05 561.79,-263.82 542.25,-587.49 -19.54,-323.66 -246.92,-496.06 -511.27,-536.68 -14.6,-2.24 -724.04,-10.27 -727.06,0.33 -0.31,1.09 7.77,54.48 8.48,91.06zm267.7 851.1c-1.13,-1.09 -0.69,-8.88 -0.71,-10.83 -2.07,-253.73 -4.01,-507.61 -7.18,-761.32 -0.16,-12.07 -2.91,-12.88 9.3,-12.73 125.47,1.67 251.21,-3.76 376.57,1.96 12.76,0.58 13.7,0.59 26.45,4.07 21.16,5.77 41.18,12.18 61.1,21.47 89.74,41.86 156.06,110.71 193.3,203.01 19.94,49.43 30.39,106.76 26.17,160.1 -10.66,132.72 -41.19,235.06 -148.38,322.36 -31.17,25.38 -65.73,49.7 -101.88,65.04 -12.58,5.34 -16.42,4.41 -29.56,4.43 -131.22,0.8 -262.45,1.86 -393.67,2.96 -1.99,0.01 -10.4,0.58 -11.51,-0.52z"/>
   <path class="fil0" d="M12252.09 10899.39c-135.06,-260.61 -630.26,-1559.37 -748.07,-1821.28 -2.09,-22.34 -268.73,-21.08 -279.7,3.06 -3.06,8.9 -0.52,58.06 -6.77,80.81 -102.2,371.89 -665.91,1643.46 -663.97,1764.89 0.33,20.5 59.47,29.74 119.69,29.48 87.4,-0.38 130.44,-32.25 130.44,-32.25 12.94,-26.02 48.01,-160.6 89.37,-284.42 39.05,-116.91 84.91,-224.21 84.91,-224.21 239.74,0.58 479.47,1.02 719.21,1.64 6.02,0.01 64.81,-0.01 65.27,0.24 9.78,5.87 90.76,250.05 103.9,281.78 20.83,50.27 43.32,101.67 68.65,149.83 13.25,25.18 46.62,87.06 73.85,98.44 51.21,21.05 112.07,24.02 164.89,15.04 54.84,-9.31 104.4,-12.74 78.33,-63.05zm-711.53 -1135.86l154.43 427.8 -308.88 0 -308.88 0 154.43 -427.8 154.45 -427.8 154.45 427.8z"/>
   <path class="fil0" d="M14380.81 9210.24c13.02,465.59 7.46,931.04 13.75,1394.18 1.27,93.94 -0.45,188.06 1.87,281.96 0.87,35.31 12.67,46.35 23.16,54.15 1.75,1.22 8.04,2.33 10.2,2.72 48.28,8.55 196.35,17.09 240.02,-8.69 8.41,-4.97 10.11,-5.66 8.6,-15.6 -3.42,-22.49 -4.21,-44.48 -5.44,-67.12 -3.19,-56.85 -5.02,-114.44 -5.79,-171.36 -2.14,-157.29 -3.45,-314.82 -3.49,-472.14 0,-31.11 284.09,-22.57 304.81,-6.94 50.14,37.86 94,125.64 152.87,221.72 105.66,172.45 225.99,398.71 359.83,532.89 12.62,3.66 306.89,37.45 249.79,-50.55 -59.53,-91.78 -115.27,-177.67 -174.79,-269.44 -51.23,-78.98 -107.72,-155.66 -158.03,-235.74 -29.95,-47.7 -141.22,-204.99 -154.45,-245.7 -2.29,-7.06 -4.86,-7.31 2.24,-9.91 21.62,-7.94 41.52,-16.76 62.15,-26.98 81.18,-40.28 139.66,-89.33 197.23,-158.52 78.21,-94.06 113.43,-192.8 117.68,-288.46 8.08,-181.92 -52.48,-338.77 -181.24,-454.87 -87.83,-79.18 -220.69,-126.49 -254.78,-127.37l-0.35 0c-5.43,-0.14 -10.86,-0.26 -16.3,-0.36 -69.22,-1.33 -138.74,-1.49 -207.99,-1.63 -50.38,-0.11 -578.51,-0.57 -589.9,12.04 -0.36,0.4 -0.08,5.18 0.01,5.81 5.13,35.04 7.36,70.88 8.34,105.91zm284.34 143.15c0.29,-20.67 -0.44,-45.23 3.51,-67.86 3.19,-18.22 14.76,-20.19 42.7,-20.94 7.9,-0.21 260.09,-8.41 399.16,8.78 60.56,7.48 243.89,126.37 241.25,348.72 -3.03,255.1 -208.09,398.66 -278.83,398.63 -55.87,-0.03 -394.85,3.75 -398.61,0.32 -3.76,-3.43 -9.35,-649.85 -9.18,-667.65z"/>
   <path class="fil0" d="M13381.58 10828.85c-19.66,-131.25 16.35,-1781.89 -17.58,-1768.22 -43.41,-20.77 -301.26,-19.11 -272.08,29.02 29.19,48.12 23.76,1826.33 32.13,1847.15 8.37,20.81 303.81,44.92 283.48,-18.79 -20.33,-63.71 -17.46,-32.38 -25.95,-89.16z"/>
  </g>
  <polygon class="fil0" points="13385.69,7611.44 10687.19,851.98 10260.19,850.68 7546.68,7612.96 8122.54,7612.26 9564.65,3939.38 10968.85,7604.49 "/>
  <path class="fil0" d="M7175.01 18575.39c-1909.06,-96.34 -2330.27,-786.81 -2138.73,-2232.39 96.86,-731.09 415.63,-1595.36 675.24,-2322.79 108.68,-304.53 212.49,-584.41 293.76,-817.36l230.93 -661.92 -599.09 -3.96c-249.5,722.92 -598.14,1661.18 -908.73,2596.63 -632.96,1906.31 -1242.52,3196.68 -2332.87,3409.36 -0.44,118.21 1.6,613.98 1.6,613.98 735.96,-181.39 4473.75,-15.05 4752.12,-12.45 13.49,0.12 20.56,-0.22 20.56,-0.84l5.21 -568.26z"/>
  <path class="fil0" d="M13968.98 15910.92c254.82,775.98 534.21,1499.97 324.96,2036.21 -213.37,546.77 -1058.86,544.12 -1672.92,613.9 -2.51,193.9 -5.04,387.78 -7.56,581.68 1138.84,-96.85 5588.94,-112.98 5909.28,21.76 7.93,3.87 11.32,-201.77 11.49,-213.33 1.29,-84.07 1.46,-168.98 -0.73,-253.04 -0.93,-35.47 -2.16,-72.31 -5.36,-107.62 -0.85,-9.39 -4.73,-43.75 -11.12,-48.96 -376.08,7.79 -727.66,-138.6 -1050.03,-510.78 -451.94,-521.78 -624.6,-1021.77 -846.02,-1652.11 -163.17,-464.49 -344.93,-998.97 -587.35,-1691.43 -162.97,-465.49 -317.72,-901.6 -438.84,-1256.2 -183.01,-535.75 -304.38,-891.02 -304.38,-891.02l-2472.28 -1.44 294.4 866.48c98.94,291.23 217.65,641.75 346.29,1026.35 179.6,537 346.51,981.18 510.17,1479.55z"/>
  <polygon class="fil0" points="6599.11,12539.55 9297.61,19150.82 9724.61,19152.09 12438.12,12538.06 11862.26,12538.74 10420.15,16131.11 9015.95,12546.35 "/>
  <path class="fil0" d="M12809.79 1458.91c1909.06,97.96 2330.27,800.06 2138.73,2270 -96.86,743.41 -415.63,1622.24 -675.24,2361.91 -108.68,309.66 -212.49,594.26 -293.76,831.14l-230.93 673.06 599.09 4.03c249.5,-735.1 598.14,-1689.16 908.73,-2640.37 632.96,-1938.43 1242.52,-3250.53 2332.87,-3466.79 0.44,-120.2 -1.6,-624.33 -1.6,-624.33 -735.96,184.46 -4473.75,15.31 -4752.12,12.67 -13.49,-0.12 -20.56,0.22 -20.56,0.85l-5.21 577.83z"/>
  <path class="fil0" d="M6015.82 4168.26c-254.82,-789.05 -534.21,-1525.23 -324.96,-2070.5 213.37,-555.99 1058.86,-553.29 1672.92,-624.24 2.51,-197.17 5.04,-394.32 7.56,-591.48 -1138.84,98.48 -5588.94,114.88 -5909.28,-22.13 -7.93,-3.93 -11.32,205.17 -11.49,216.92 -1.29,85.49 -1.46,171.83 0.73,257.3 0.93,36.08 2.16,73.53 5.36,109.44 0.85,9.55 4.73,44.49 11.12,49.79 376.08,-7.93 727.66,140.93 1050.03,519.38 451.94,530.57 624.6,1038.98 846.02,1679.94 163.17,472.32 344.93,1015.8 587.35,1719.92 162.97,473.34 317.72,916.79 438.84,1277.36 183.01,544.77 304.38,906.02 304.38,906.02l2472.28 1.48 -294.4 -881.08c-98.94,-296.14 -217.65,-652.56 -346.29,-1043.64 -179.6,-546.04 -346.51,-997.71 -510.17,-1504.48z"/>
 </g>
</svg>
